<?xml version="1.0" encoding="UTF-8" standalone="no"?>
<!-- Created with Inkscape (http://www.inkscape.org/) -->

<svg
   xmlns:dc="http://purl.org/dc/elements/1.1/"
   xmlns:cc="http://creativecommons.org/ns#"
   xmlns:rdf="http://www.w3.org/1999/02/22-rdf-syntax-ns#"
   xmlns:svg="http://www.w3.org/2000/svg"
   xmlns="http://www.w3.org/2000/svg"
   xmlns:sodipodi="http://sodipodi.sourceforge.net/DTD/sodipodi-0.dtd"
   xmlns:inkscape="http://www.inkscape.org/namespaces/inkscape"
   id="svg2"
   viewBox="0 0 512 512"
   version="1.0"
   inkscape:version="0.48.5 r10040"
   width="100%"
   height="100%"
   sodipodi:docname="black_rook.svg">
  <sodipodi:namedview
     pagecolor="#ffffff"
     bordercolor="#666666"
     borderopacity="1"
     objecttolerance="10"
     gridtolerance="10"
     guidetolerance="10"
     inkscape:pageopacity="0"
     inkscape:pageshadow="2"
     inkscape:window-width="1600"
     inkscape:window-height="838"
     id="namedview3028"
     showgrid="false"
     inkscape:zoom="1.31"
     inkscape:cx="218.74761"
     inkscape:cy="246.88024"
     inkscape:window-x="-8"
     inkscape:window-y="-8"
     inkscape:window-maximized="1"
     inkscape:current-layer="svg2" />
  <defs
     id="defs12" />
  <metadata
     id="metadata_rdf">
    <rdf:RDF>
      <cc:Work>
        <dc:format>image/svg+xml</dc:format>
        <dc:type
           rdf:resource="http://purl.org/dc/dcmitype/StillImage" />
        <cc:license
           rdf:resource="http://creativecommons.org/licenses/publicdomain/" />
        <dc:publisher>
          <cc:Agent
             rdf:about="https://github.com/OMerkel/">
            <dc:title>Oliver Merkel</dc:title>
          </cc:Agent>
        </dc:publisher>
        <dc:title />
        <dc:date>2014-10-11T00:00:00</dc:date>
        <dc:description />
        <dc:source>https://github.com/OMerkel/p4wn</dc:source>
        <dc:creator>
          <cc:Agent>
            <dc:title>Oliver Merkel</dc:title>
          </cc:Agent>
        </dc:creator>
      </cc:Work>
      <cc:License
         rdf:about="http://creativecommons.org/licenses/publicdomain/">
        <cc:permits
           rdf:resource="http://creativecommons.org/ns#Reproduction" />
        <cc:permits
           rdf:resource="http://creativecommons.org/ns#Distribution" />
        <cc:permits
           rdf:resource="http://creativecommons.org/ns#DerivativeWorks" />
      </cc:License>
    </rdf:RDF>
  </metadata>
  <path
     sodipodi:nodetypes="ccccccccccccccccccccccccccc"
     inkscape:connector-curvature="0"
     id="path3775"
     d="m 33.546636,486.04874 c 0.397952,-24.50387 -2.62915,-65.64682 1.822089,-76.81877 28.632577,-6.54861 52.186994,-29.0559 71.364915,-35.71244 37.75795,-27.97261 18.97253,-85.51941 17.98594,-170.84015 0.72678,-16.83297 1.43421,-35.73728 -19.77148,-28.48959 9.07916,-36.85727 -30.623843,-28.85807 -55.273435,-27.97047 5.317027,-27.05899 4.029322,-88.247698 2.904922,-115.617708 39.984921,-3.584315 79.724903,-1.722565 117.423553,-1.522573 16.25272,8.050587 -15.77094,40.847306 6.64114,34.115912 36.72243,2.233019 22.56077,-21.675625 23.3849,-36.91498 25.77899,1.514546 44.75537,3.07666 67.61051,0.726051 15.18507,4.398864 40.94407,-8.496467 38.91033,17.164495 -0.14743,17.056169 0.14212,31.551313 22.98338,26.028418 0.14727,-19.627354 3.68967,-16.871263 5.71413,-38.737841 41.12823,6.626338 80.65772,-2.105751 120.31515,1.570806 0.84095,24.147434 1.46049,47.395638 1.83551,68.96266 1.58951,28.76466 -0.88972,38.15806 -29.14506,37.69933 -11.49594,3.28102 2.7582,9.04588 -12.88279,6.99958 -29.48052,3.11949 -10.01257,28.9983 -32.33425,34.1109 3.07441,33.89794 -0.95045,67.85968 0.49527,101.77943 7.65931,16.47934 -13.18563,49.03655 15.05964,48.70606 19.13724,0.28169 16.01386,24.56213 16.82819,30.86293 28.7958,-9.44911 18.33999,23.82235 23.82002,36.01145 17.70191,-4.96368 36.52926,-5.41273 36.49143,21.74758 -2.32111,24.10689 12.30798,34.21843 -15.42656,55.8966 -27.22209,14.98099 -112.34637,6.07186 -165.36623,10.6333 -52.85647,1.518 -229.743703,-1.78476 -261.391214,-0.39098 z"
     style="fill:#000000;fill-opacity:1;stroke:#333333;stroke-width:8;stroke-linecap:round;stroke-miterlimit:4;stroke-opacity:1;stroke-dasharray:none" />
  <path
     style="fill:#000000;fill-opacity:1;stroke:#333333;stroke-width:8;stroke-linecap:round;stroke-miterlimit:4;stroke-opacity:1;stroke-dasharray:none"
     d="m 230.9722,461.15823 c 76.43575,14.95858 148.54154,-2.90784 217.3778,-2.62136 1.61098,-21.80554 1.48935,-35.20808 -4.7172,-41.17293 -18.84719,8.33685 -45.67087,-3.89753 -38.25345,-23.74025 6.28744,-22.37099 -32.91149,1.34589 -22.2957,-23.51806 6.4721,-26.64447 -46.13316,-12.34249 -30.2426,-43.59575 -0.80906,-26.60002 -2.49157,-53.13403 0.22941,-79.73106 1.1468,-21.817 -2.3294,-43.54027 -1.80361,-65.32089 43.43278,-22.41192 29.00107,-20.23003 29.50177,-21.93596 -6.38972,-24.74483 22.16811,-29.63891 39.18728,-33.70919 7.7243,-28.974593 3.3985,6.66209 1.67848,-61.897053 C 417.47749,40.584682 357.66539,57.862878 347.8092,56.47913 346.17173,91.038998 362.51287,86.361213 313.15579,91.169452 294.18772,94.260243 268.03632,90.220304 280.80995,64.961889 293.0688,33.72737 246.905,52.038529 230.50761,47.563656 c -5.95396,9.590487 -3.59044,21.780521 -7.02682,36.484045 -23.98487,1.804212 -35.55026,-2.093185 -59.35083,1.007626 -14.1703,-0.143303 -27.77804,3.356248 -25.2833,-18.253512 0.92401,-17.706909 0.74912,-22.312788 -13.79662,-16.406399 -12.73985,-1.533015 -19.11237,-1.883871 -41.080419,-4.757864 2.584786,27.381227 3.156871,49.950195 0.861098,77.123878 6.071496,8.83046 27.702481,0.72531 38.611111,0.37107 3.65668,11.56176 -12.86049,43.45403 28.49262,34.06746 2.57206,45.38349 5.40852,143.47247 -0.28873,187.71203 -13.02322,1.19944 -11.38139,0.1593 -23.12807,3.38796 6.45504,21.47737 2.31119,19.94825 2.81261,30.93115 -18.51019,7.88928 -30.70883,-5.12058 -34.491003,8.00655 8.699633,23.01634 -8.217622,36.94901 -32.701719,32.40569 -1.88694,15.3528 -0.681173,-6.98372 -4.729342,45.46747 57.050154,-2.92123 118.520754,-2.88457 171.564004,-3.95258 z M 35.368725,409.22997 c 28.632577,-6.54861 52.186994,-29.0559 71.364915,-35.71244 37.75795,-27.97261 18.97253,-85.51941 17.98594,-170.84015 0.72678,-16.83297 1.43421,-35.73728 -19.77148,-28.48959 9.07916,-36.85727 -30.623843,-28.85807 -55.273435,-27.97047 5.317027,-27.05899 4.029322,-88.247698 2.904922,-115.617708 39.984921,-3.584315 79.724903,-1.722565 117.423553,-1.522573 16.25272,8.050587 -15.77094,40.847306 6.64114,34.115912 36.72243,2.233019 22.56077,-21.675625 23.3849,-36.91498 25.77899,1.514546 44.75537,3.07666 67.61051,0.726051 15.18507,4.398864 40.94407,-8.496467 38.91033,17.164495 -0.14743,17.056169 0.14212,31.551313 22.98338,26.028418 0.14727,-19.627354 3.68967,-16.871263 5.71413,-38.737841 41.12823,6.626338 80.65772,-2.105751 120.31515,1.570806 0.84095,24.147434 1.46049,47.395638 1.83551,68.96266 1.58951,28.76466 -0.88972,38.15806 -29.14506,37.69933 -11.49594,3.28102 2.7582,9.04588 -12.88279,6.99958 -29.48052,3.11949 -10.01257,28.9983 -32.33425,34.1109 3.07441,33.89794 -0.95045,67.85968 0.49527,101.77943 7.65931,16.47934 -13.18563,49.03655 15.05964,48.70606 19.13724,0.28169 16.01386,24.56213 16.82819,30.86293 28.7958,-9.44911 18.33999,23.82235 23.82002,36.01145 17.70191,-4.96368 36.52926,-5.41273 36.49143,21.74758 -2.32111,24.10689 12.30798,34.21843 -15.42656,55.8966 -27.22209,14.98099 -112.34637,6.07186 -165.36623,10.6333 -87.6532,-4.25337 -174.50744,-3.84528 -260.749346,-1.17341 -0.243916,-22.95808 -3.271018,-64.86439 1.180221,-76.03634 z"
     id="path2994"
     inkscape:connector-curvature="0"
     sodipodi:nodetypes="ccccccccccccccccccccccccccccccccccccccccccccccccccccccccc" />
  <path
     style="fill:#ffffff;fill-opacity:1;stroke:#333333;stroke-width:8;stroke-linecap:round;stroke-miterlimit:4;stroke-opacity:1"
     d="m 366.28125,123.84375 -220.625,0.78125 a 8.0008,8.0008 0 1 0 0.0625,16 l 220.625,-0.78125 a 8.0008,8.0008 0 1 0 -0.0625,-16 z"
     id="path2997"
     inkscape:connector-curvature="0" />
  <path
     style="fill:#ffffff;fill-opacity:1;stroke:#333333;stroke-width:8;stroke-linecap:round;stroke-miterlimit:4;stroke-opacity:1"
     d="m 366.28125,373.84375 -220.625,0.78125 a 8.0008,8.0008 0 1 0 0.0625,16 l 220.625,-0.78125 a 8.0008,8.0008 0 1 0 -0.0625,-16 z"
     id="path3767"
     inkscape:connector-curvature="0" />
  <path
     style="fill:#ffffff;fill-opacity:1;stroke:#333333;stroke-width:8;stroke-linecap:round;stroke-miterlimit:4;stroke-opacity:1"
     d="m 388.40625,405.84375 -271,1.53125 a 8.0008,8.0008 0 1 0 0.0937,16 l 271,-1.53125 a 8.0008,8.0008 0 1 0 -0.0937,-16 z"
     id="path3769"
     inkscape:connector-curvature="0" />
  <path
     style="fill:#ffffff;fill-opacity:1;stroke:#333333;stroke-width:8;stroke-linecap:round;stroke-miterlimit:4;stroke-opacity:1"
     d="m 173.46875,331.09375 a 8.0008,8.0008 0 1 0 0,16 l 161.0625,0 a 8.0008,8.0008 0 1 0 0,-16 l -161.0625,0 z"
     id="path3771"
     inkscape:connector-curvature="0" />
  <path
     style="fill:#ffffff;fill-opacity:1;stroke:#333333;stroke-width:8;stroke-linecap:round;stroke-miterlimit:4;stroke-opacity:1"
     d="m 173.46875,171.09375 a 8.0008,8.0008 0 1 0 0,16 l 161.0625,0 a 8.0008,8.0008 0 1 0 0,-16 l -161.0625,0 z"
     id="path3773"
     inkscape:connector-curvature="0" />
</svg>
