<?xml version="1.0" encoding="UTF-8" standalone="no"?>
<!-- Created with Inkscape (http://www.inkscape.org/) -->

<svg
   xmlns:dc="http://purl.org/dc/elements/1.1/"
   xmlns:cc="http://creativecommons.org/ns#"
   xmlns:rdf="http://www.w3.org/1999/02/22-rdf-syntax-ns#"
   xmlns:svg="http://www.w3.org/2000/svg"
   xmlns="http://www.w3.org/2000/svg"
   xmlns:sodipodi="http://sodipodi.sourceforge.net/DTD/sodipodi-0.dtd"
   xmlns:inkscape="http://www.inkscape.org/namespaces/inkscape"
   id="svg2"
   viewBox="0 0 512 512"
   version="1.0"
   inkscape:version="0.48.5 r10040"
   width="100%"
   height="100%"
   sodipodi:docname="black_pawn.svg">
  <sodipodi:namedview
     pagecolor="#ffffff"
     bordercolor="#666666"
     borderopacity="1"
     objecttolerance="10"
     gridtolerance="10"
     guidetolerance="10"
     inkscape:pageopacity="0"
     inkscape:pageshadow="2"
     inkscape:window-width="1600"
     inkscape:window-height="838"
     id="namedview3028"
     showgrid="false"
     inkscape:zoom="1.31"
     inkscape:cx="345.38109"
     inkscape:cy="234.95033"
     inkscape:window-x="-8"
     inkscape:window-y="-8"
     inkscape:window-maximized="1"
     inkscape:current-layer="svg2" />
  <defs
     id="defs12" />
  <metadata
     id="metadata_rdf">
    <rdf:RDF>
      <cc:Work>
        <dc:format>image/svg+xml</dc:format>
        <dc:type
           rdf:resource="http://purl.org/dc/dcmitype/StillImage" />
        <cc:license
           rdf:resource="http://creativecommons.org/licenses/publicdomain/" />
        <dc:publisher>
          <cc:Agent
             rdf:about="https://github.com/OMerkel/">
            <dc:title>Oliver Merkel</dc:title>
          </cc:Agent>
        </dc:publisher>
        <dc:title></dc:title>
        <dc:date>2014-10-11T00:00:00</dc:date>
        <dc:description />
        <dc:source>https://github.com/OMerkel/p4wn</dc:source>
        <dc:creator>
          <cc:Agent>
            <dc:title>Oliver Merkel</dc:title>
          </cc:Agent>
        </dc:creator>
      </cc:Work>
      <cc:License
         rdf:about="http://creativecommons.org/licenses/publicdomain/">
        <cc:permits
           rdf:resource="http://creativecommons.org/ns#Reproduction" />
        <cc:permits
           rdf:resource="http://creativecommons.org/ns#Distribution" />
        <cc:permits
           rdf:resource="http://creativecommons.org/ns#DerivativeWorks" />
      </cc:License>
    </rdf:RDF>
  </metadata>
  <path
     sodipodi:nodetypes="cccczcccccc"
     inkscape:connector-curvature="0"
     id="path3009"
     d="M 193.17113,280.82094 C 118.67922,227.5738 136.1786,198.63352 208.28816,144.81167 197.21899,128.36945 163.9282,94.219828 186.35438,66.350397 c 23.22583,-27.480212 68.24316,-39.555863 99.83236,-32.38796 19.36939,8.9162 40.72028,23.934119 42.83542,46.709942 2.11514,22.775821 -8.35089,37.659691 -24.83358,56.792101 80.42798,35.92479 80.62404,75.3901 12.96969,135.50052 63.85278,21.32211 102.99393,55.30911 126.09272,114.28766 12.05825,40.66242 24.10534,86.57366 -32.99706,83.74439 -111.50598,7.85082 -233.16803,8.48855 -349.527512,3.39782 8.061023,-97.71069 52.000452,-156.67 132.444712,-193.57393 z"
     style="fill:#000000;fill-opacity:1;stroke:#333333;stroke-width:8;stroke-linecap:round;stroke-miterlimit:4;stroke-opacity:1;stroke-dasharray:none" />
  <path
     style="fill:#000000;fill-opacity:1;stroke:#333333;stroke-width:8;stroke-linecap:round;stroke-miterlimit:4;stroke-opacity:1;stroke-dasharray:none"
     d="M 193.17113,280.82094 C 118.67922,227.5738 136.1786,198.63352 208.28816,144.81167 197.21899,128.36945 163.9282,94.219828 186.35438,66.350397 c 23.22583,-27.480212 68.24316,-39.555863 99.83236,-32.38796 19.36939,8.9162 40.72028,23.934119 42.83542,46.709942 2.11514,22.775821 -8.35089,37.659691 -24.83358,56.792101 80.42798,35.92479 80.62404,75.3901 12.96969,135.50052 63.85278,21.32211 102.99393,55.30911 126.09272,114.28766 12.05825,40.66242 24.10534,86.57366 -32.99706,83.74439 -111.50598,7.85082 -233.16803,8.48855 -349.527512,3.39782 8.061023,-97.71069 52.000452,-156.67 132.444712,-193.57393 z m 229.00906,167.39294 c -14.74574,-70.56162 -15.91838,-116.18402 -100.68838,-152.2908 -11.7279,-4.59779 -50.75512,-14.83402 -27.50593,-26.59619 36.09705,-21.13126 80.08055,-74.16736 26.28288,-98.61728 -17.80438,-9.04885 -34.30267,-20.85079 -53.04493,-27.78859 34.02451,-29.91608 48.66684,-59.478317 12.92767,-84.373944 -36.45607,-23.025646 -71.37033,6.818814 -74.72729,27.65171 0.0612,22.617554 8.18145,49.699244 27.45039,59.077284 -25.53978,19.17533 -46.15456,36.67253 -61.29291,47.83471 -27.04777,43.09398 40.47676,64.85415 50.10166,92.12762 -72.52521,26.68042 -118.48355,62.32924 -136.396833,167.28074 117.547173,15.17838 233.172253,13.84321 336.893673,-4.30526 z"
     id="path3006"
     inkscape:connector-curvature="0"
     sodipodi:nodetypes="cccczcccccccccccccccccc" />
</svg>
